<svg width="40" height="226" viewBox="0 0 40 226" fill="none" xmlns="http://www.w3.org/2000/svg">
<path d="M9.6 215.728H19.428V216.556H9.6V215.728ZM13.992 212.92H14.988V215.956H13.992V212.92ZM10.74 207.988H18.228V213.1H10.74V207.988ZM17.268 208.792H11.712V212.296H17.268V208.792ZM20.9871 214.444H21.7071C23.0271 214.444 24.2511 214.396 25.7391 214.144L25.8231 214.96C24.2991 215.224 23.0751 215.272 21.7071 215.272H20.9871V214.444ZM20.9631 208.276H24.8391V212.056H21.9591V214.78H20.9871V211.252H23.8791V209.092H20.9631V208.276ZM28.8831 207.088H29.8431V217.936H28.8831V207.088ZM25.3551 210.976H27.1071V211.804H25.3551V210.976ZM26.6991 207.352H27.6231V217.372H26.6991V207.352Z" fill="black" fill-opacity="0.6"/>
<line x1="20.5" y1="2.538e-05" x2="20.4898" y2="200" stroke="#CACACA" stroke-dasharray="2 2"/>
<rect x="0.5" y="200.5" width="39" height="25" rx="12.5" stroke="#CACACA"/>
</svg>
