<svg width="40" height="226" viewBox="0 0 40 226" fill="none" xmlns="http://www.w3.org/2000/svg">
<path d="M17.832 207.088H18.792V217.936H17.832V207.088ZM16.008 211.504H18.096V212.32H16.008V211.504ZM15.372 207.328H16.308V217.384H15.372V207.328ZM10.116 208.396H11.112V214.66H10.116V208.396ZM10.116 214.264H10.812C11.928 214.264 13.176 214.192 14.592 213.916L14.7 214.78C13.224 215.068 11.976 215.128 10.812 215.128H10.116V214.264ZM23.6751 207.484C25.2951 207.484 26.4831 208.468 26.4831 209.896C26.4831 211.312 25.2951 212.296 23.6751 212.296C22.0671 212.296 20.8791 211.312 20.8791 209.896C20.8791 208.468 22.0671 207.484 23.6751 207.484ZM23.6751 208.3C22.6311 208.3 21.8391 208.96 21.8391 209.896C21.8391 210.832 22.6311 211.48 23.6751 211.48C24.7311 211.48 25.5111 210.832 25.5111 209.896C25.5111 208.96 24.7311 208.3 23.6751 208.3ZM28.5231 207.088H29.5311V212.644H28.5231V207.088ZM22.5111 213.172H29.5311V215.812H23.5071V217.444H22.5351V215.068H28.5471V213.976H22.5111V213.172ZM22.5351 217H29.8911V217.792H22.5351V217Z" fill="black" fill-opacity="0.6"/>
<line x1="20.5" y1="2.538e-05" x2="20.4898" y2="200" stroke="#CACACA" stroke-dasharray="2 2"/>
<rect x="0.5" y="200.5" width="39" height="25" rx="12.5" stroke="#CACACA"/>
</svg>
